<?xml version="1.0" standalone="no"?>
<!DOCTYPE svg PUBLIC "-//W3C//DTD SVG 20010904//EN"
 "http://www.w3.org/TR/2001/REC-SVG-20010904/DTD/svg10.dtd">
<svg version="1.0" xmlns="http://www.w3.org/2000/svg"
 width="96.000000pt" height="96.000000pt" viewBox="0 0 96.000000 96.000000"
 preserveAspectRatio="xMidYMid meet">
<metadata>
Created by potrace 1.14, written by Peter Selinger 2001-2017
</metadata>
<g transform="translate(0.000000,96.000000) scale(0.100000,-0.100000)"
fill="#000000" stroke="none">
<path d="M35 785 c-24 -23 -25 -28 -25 -170 0 -85 4 -145 10 -145 5 0 10 30
12 68 l3 67 448 3 447 3 0 -201 c-1 -191 -2 -201 -23 -220 -20 -19 -36 -20
-426 -20 -346 1 -409 3 -426 16 -17 13 -21 30 -25 122 -4 66 -9 100 -14 90 -4
-10 -6 -61 -4 -114 5 -146 -36 -134 470 -134 l419 0 25 25 25 25 -3 286 -3
286 -24 19 c-22 18 -45 19 -443 19 l-419 0 -24 -25z m870 -10 c14 -12 20 -31
23 -80 l4 -65 -452 0 -452 0 4 65 c3 49 9 68 23 80 30 22 820 22 850 0z"/>
<path d="M118 749 c-21 -12 -24 -59 -6 -77 19 -19 55 -14 72 9 16 23 12 47
-12 67 -19 14 -31 15 -54 1z m42 -59 c-19 -12 -40 -1 -40 20 0 25 33 30 44 7
7 -13 6 -21 -4 -27z"/>
<path d="M226 744 c-30 -30 -9 -84 33 -84 38 0 58 53 31 80 -24 24 -43 25 -64
4z m54 -34 c0 -24 -25 -33 -40 -14 -10 11 -10 17 0 28 15 19 40 10 40 -14z"/>
<path d="M468 749 c-25 -14 -24 -65 1 -79 12 -6 92 -10 190 -10 157 0 173 2
191 20 21 21 18 46 -8 68 -20 15 -348 17 -374 1z m360 -18 c6 0 12 -10 12 -21
0 -24 12 -22 -188 -25 -125 -1 -165 1 -173 12 -8 9 -8 17 -1 26 8 9 52 12 174
11 90 -1 169 -2 176 -3z"/>
<path d="M212 550 c-17 -10 -34 -29 -38 -42 -4 -13 -16 -33 -28 -45 -12 -13
-26 -47 -33 -85 -19 -100 -17 -124 13 -147 23 -18 41 -21 131 -21 102 0 161
14 164 40 4 30 2 62 -10 126 -9 52 -19 78 -37 95 -13 12 -24 28 -24 34 0 20
-46 55 -77 59 -18 3 -43 -3 -61 -14z m106 -38 c14 -22 14 -22 -57 -22 -69 0
-71 1 -59 20 27 42 88 43 116 2z m46 -63 c8 -8 20 -51 29 -96 20 -112 15 -117
-130 -118 -144 -1 -150 3 -132 110 18 111 30 122 138 120 56 -1 86 -6 95 -16z"/>
<path d="M465 550 c-35 -39 -4 -100 52 -100 25 0 23 -20 -5 -52 -12 -15 -12
-21 2 -49 18 -36 21 -53 7 -44 -17 10 -21 -12 -6 -25 8 -7 15 -19 15 -27 0 -8
6 -13 13 -10 6 2 11 9 10 15 -1 5 4 16 12 22 19 16 19 56 0 64 -18 6 -16 26 3
41 11 9 11 13 -2 24 -9 8 -16 20 -16 27 0 11 27 14 133 14 150 0 177 9 177 60
0 51 -22 57 -210 57 -146 0 -172 -2 -185 -17z m347 -9 c24 -1 34 -42 14 -56
-18 -14 -322 -15 -343 -2 -17 11 -16 44 1 54 12 6 242 9 328 4z"/>
<path d="M15 447 c-4 -10 -5 -21 -1 -24 10 -10 18 4 13 24 -4 17 -4 17 -12 0z"/>
<path d="M622 398 c6 -16 177 -18 181 -3 1 6 -38 11 -91 13 -73 2 -93 0 -90
-10z"/>
<path d="M688 352 c-38 -2 -68 -7 -68 -12 0 -13 177 -13 184 -1 8 12 -35 17
-116 13z"/>
<path d="M623 287 c2 -8 32 -12 90 -12 120 0 118 19 -1 22 -68 1 -92 -1 -89
-10z"/>
</g>
</svg>
